<mxfile host="app.diagrams.net" modified="2023-05-16T08:58:11.301Z" agent="Mozilla/5.0 (Windows NT 10.0; Win64; x64) AppleWebKit/537.36 (KHTML, like Gecko) Chrome/113.0.0.0 Safari/537.36" etag="2K3xr425DjuUmEZBaJ1b" version="21.2.8" type="github">
  <diagram name="Page-1" id="vOUiNsE_Ql6HPXNtZsOp">
    <mxGraphModel dx="819" dy="523" grid="1" gridSize="10" guides="1" tooltips="1" connect="1" arrows="1" fold="1" page="1" pageScale="1" pageWidth="600" pageHeight="500" math="0" shadow="0">
      <root>
        <mxCell id="0" />
        <mxCell id="1" parent="0" />
        <mxCell id="pNGkDI2xaqKmXn3XfgN7-1" value="" style="ellipse;whiteSpace=wrap;html=1;aspect=fixed;" vertex="1" parent="1">
          <mxGeometry x="170" y="130" width="150" height="150" as="geometry" />
        </mxCell>
        <mxCell id="pNGkDI2xaqKmXn3XfgN7-2" value="" style="shape=xor;whiteSpace=wrap;html=1;rotation=-90;" vertex="1" parent="1">
          <mxGeometry x="236.25" y="101.25" width="17.5" height="40" as="geometry" />
        </mxCell>
        <mxCell id="pNGkDI2xaqKmXn3XfgN7-3" value="" style="rounded=0;whiteSpace=wrap;html=1;fillColor=#fff2cc;strokeColor=#d6b656;" vertex="1" parent="1">
          <mxGeometry x="236.25" y="135" width="20" height="140" as="geometry" />
        </mxCell>
        <mxCell id="pNGkDI2xaqKmXn3XfgN7-4" value="" style="rounded=0;whiteSpace=wrap;html=1;fillColor=#fff2cc;strokeColor=#d6b656;" vertex="1" parent="1">
          <mxGeometry x="390" y="41.25" width="120" height="60" as="geometry" />
        </mxCell>
        <mxCell id="pNGkDI2xaqKmXn3XfgN7-6" value="First" style="text;html=1;strokeColor=none;fillColor=none;align=center;verticalAlign=middle;whiteSpace=wrap;rounded=0;" vertex="1" parent="1">
          <mxGeometry x="510" y="56.25" width="60" height="30" as="geometry" />
        </mxCell>
        <mxCell id="pNGkDI2xaqKmXn3XfgN7-7" value="" style="rounded=0;whiteSpace=wrap;html=1;fillColor=#f8cecc;strokeColor=#b85450;" vertex="1" parent="1">
          <mxGeometry x="256.25" y="137.5" width="20" height="135" as="geometry" />
        </mxCell>
        <mxCell id="pNGkDI2xaqKmXn3XfgN7-8" value="" style="rounded=0;whiteSpace=wrap;html=1;fillColor=#f8cecc;strokeColor=#b85450;" vertex="1" parent="1">
          <mxGeometry x="390" y="110" width="120" height="60" as="geometry" />
        </mxCell>
        <mxCell id="pNGkDI2xaqKmXn3XfgN7-9" value="Second" style="text;html=1;strokeColor=none;fillColor=none;align=center;verticalAlign=middle;whiteSpace=wrap;rounded=0;" vertex="1" parent="1">
          <mxGeometry x="520" y="120" width="60" height="30" as="geometry" />
        </mxCell>
        <mxCell id="pNGkDI2xaqKmXn3XfgN7-10" value="" style="rounded=0;whiteSpace=wrap;html=1;fillColor=#d5e8d4;strokeColor=#82b366;" vertex="1" parent="1">
          <mxGeometry x="290" y="140" width="20" height="135" as="geometry" />
        </mxCell>
        <mxCell id="pNGkDI2xaqKmXn3XfgN7-11" value="" style="rounded=0;whiteSpace=wrap;html=1;fillColor=#dae8fc;strokeColor=#6c8ebf;" vertex="1" parent="1">
          <mxGeometry x="180" y="141.25" width="20" height="135" as="geometry" />
        </mxCell>
        <mxCell id="pNGkDI2xaqKmXn3XfgN7-12" value="" style="rounded=0;whiteSpace=wrap;html=1;fillColor=#dae8fc;strokeColor=#6c8ebf;" vertex="1" parent="1">
          <mxGeometry x="390" y="178.75" width="120" height="60" as="geometry" />
        </mxCell>
        <mxCell id="pNGkDI2xaqKmXn3XfgN7-13" value="Third" style="text;html=1;strokeColor=none;fillColor=none;align=center;verticalAlign=middle;whiteSpace=wrap;rounded=0;" vertex="1" parent="1">
          <mxGeometry x="510" y="190" width="60" height="30" as="geometry" />
        </mxCell>
        <mxCell id="pNGkDI2xaqKmXn3XfgN7-14" value="" style="rounded=0;whiteSpace=wrap;html=1;fillColor=#d5e8d4;strokeColor=#82b366;" vertex="1" parent="1">
          <mxGeometry x="390" y="250" width="120" height="60" as="geometry" />
        </mxCell>
        <mxCell id="pNGkDI2xaqKmXn3XfgN7-15" value="Fourth" style="text;html=1;strokeColor=none;fillColor=none;align=center;verticalAlign=middle;whiteSpace=wrap;rounded=0;" vertex="1" parent="1">
          <mxGeometry x="510" y="265" width="60" height="30" as="geometry" />
        </mxCell>
      </root>
    </mxGraphModel>
  </diagram>
</mxfile>
